<svg xmlns="http://www.w3.org/2000/svg" fill="none" viewBox="0 0 576 432">
  <path fill="#E5E5E5" d="M0 0h576v432H0z"/>
  <path fill-rule="evenodd" clip-rule="evenodd" d="M270.5 202a3.5 3.5 0 013.5-3.5h28a3.5 3.5 0 013.5 3.5v28a3.5 3.5 0 01-3.5 3.5h-28a3.5 3.5 0 01-3.5-3.5v-28zm32 0v20.379l-7.439-7.44a1.502 1.502 0 00-2.122 0l-2.939 2.94-7.939-7.94a1.502 1.502 0 00-2.122 0l-6.439 6.44V202a.5.5 0 01.5-.5h28a.5.5 0 01.5.5zm-29 28v-9.379l7.5-7.5 7.939 7.94a1.502 1.502 0 002.122 0l2.939-2.94 8.5 8.5V230a.5.5 0 01-.5.5h-28a.5.5 0 01-.5-.5zm20.5-18a4 4 0 100-8 4 4 0 000 8z" fill="#7B7F8C"/>
</svg>
