<svg xmlns="http://www.w3.org/2000/svg" fill="none" viewBox="0 0 480 360">
  <path fill="#E5E5E5" d="M0 0h480v360H0z"/>
  <path fill-rule="evenodd" clip-rule="evenodd" d="M222.5 166a3.5 3.5 0 013.5-3.5h28a3.5 3.5 0 013.5 3.5v28a3.5 3.5 0 01-3.5 3.5h-28a3.5 3.5 0 01-3.5-3.5v-28zm32 0v20.379l-7.439-7.44a1.502 1.502 0 00-2.122 0l-2.939 2.94-7.939-7.94a1.502 1.502 0 00-2.122 0l-6.439 6.44V166a.5.5 0 01.5-.5h28a.5.5 0 01.5.5zM233 177.121l-7.5 7.5V194a.5.5 0 00.5.5h28a.5.5 0 00.5-.5v-3.379l-8.5-8.5-2.939 2.94a1.502 1.502 0 01-2.122 0l-7.939-7.94zM246 176a4 4 0 100-8 4 4 0 000 8z" fill="#7B7F8C"/>
</svg>
