<svg xmlns="http://www.w3.org/2000/svg" fill="none" viewBox="0 0 320 200">
  <path fill="#E5E5E5" d="M0 0h320v200H0z"/>
  <path fill-rule="evenodd" clip-rule="evenodd" d="M142.5 86a3.5 3.5 0 013.5-3.5h28a3.5 3.5 0 013.5 3.5v28a3.5 3.5 0 01-3.5 3.5h-28a3.5 3.5 0 01-3.5-3.5V86zm32 0v20.379l-7.439-7.44a1.5 1.5 0 00-2.122 0L162 101.88l-7.939-7.94a1.5 1.5 0 00-2.122 0l-6.439 6.44V86a.5.5 0 01.5-.5h28a.5.5 0 01.5.5zM153 97.121l-7.5 7.5V114a.5.5 0 00.5.5h28a.5.5 0 00.5-.5v-3.379l-8.5-8.5-2.939 2.94a1.502 1.502 0 01-2.122 0L153 97.121zM166 96a4 4 0 100-8 4 4 0 000 8z" fill="#7B7F8C"/>
</svg>
